<svg width="84" height="33" viewBox="0 0 84 33" fill="none" xmlns="http://www.w3.org/2000/svg">
<path d="M13.38 0.499998C14.91 0.499998 16.365 0.964998 17.745 1.895C19.125 2.795 20.235 4.025 21.075 5.585C21.915 7.115 22.335 8.795 22.335 10.625C22.335 12.425 21.915 14.105 21.075 15.665C20.235 17.225 19.125 18.47 17.745 19.4C16.365 20.3 14.91 20.75 13.38 20.75H5.55V29.255C5.55 30.065 5.31 30.725 4.83 31.235C4.35 31.745 3.72 32 2.94 32C2.19 32 1.575 31.745 1.095 31.235C0.615 30.695 0.375 30.035 0.375 29.255V3.245C0.375 2.465 0.63 1.82 1.14 1.31C1.68 0.769998 2.34 0.499998 3.12 0.499998H13.38ZM13.38 15.62C13.95 15.62 14.505 15.38 15.045 14.9C15.615 14.42 16.065 13.805 16.395 13.055C16.755 12.275 16.935 11.465 16.935 10.625C16.935 9.785 16.755 8.99 16.395 8.24C16.065 7.46 15.615 6.845 15.045 6.395C14.505 5.915 13.95 5.675 13.38 5.675H5.55V15.62H13.38Z" fill="#3D8493"/>
<path d="M56.4693 16.25C56.4693 19.22 55.8093 21.95 54.4893 24.44C53.1693 26.9 51.3393 28.85 48.9993 30.29C46.6893 31.73 44.0793 32.45 41.1693 32.45C38.2593 32.45 35.6343 31.73 33.2943 30.29C30.9843 28.85 29.1693 26.9 27.8493 24.44C26.5593 21.95 25.9143 19.22 25.9143 16.25C25.9143 13.28 26.5593 10.565 27.8493 8.105C29.1693 5.615 30.9843 3.65 33.2943 2.21C35.6343 0.769998 38.2593 0.0499983 41.1693 0.0499983C44.0793 0.0499983 46.6893 0.769998 48.9993 2.21C51.3393 3.65 53.1693 5.615 54.4893 8.105C55.8093 10.565 56.4693 13.28 56.4693 16.25ZM50.6193 16.25C50.6193 14.24 50.2143 12.425 49.4043 10.805C48.5943 9.155 47.4693 7.85 46.0293 6.89C44.5893 5.93 42.9693 5.45 41.1693 5.45C39.3393 5.45 37.7043 5.93 36.2643 6.89C34.8543 7.82 33.7443 9.11 32.9343 10.76C32.1543 12.41 31.7643 14.24 31.7643 16.25C31.7643 18.26 32.1543 20.09 32.9343 21.74C33.7443 23.39 34.8543 24.695 36.2643 25.655C37.7043 26.585 39.3393 27.05 41.1693 27.05C42.9693 27.05 44.5893 26.57 46.0293 25.61C47.4693 24.65 48.5943 23.36 49.4043 21.74C50.2143 20.09 50.6193 18.26 50.6193 16.25Z" fill="#D89F65"/>
<path d="M71.7598 32.45C69.5998 32.45 67.6798 32.18 65.9998 31.64C64.3198 31.1 62.7448 30.185 61.2748 28.895C60.4648 28.175 60.0598 27.38 60.0598 26.51C60.0598 25.82 60.3148 25.22 60.8248 24.71C61.3348 24.17 61.9498 23.9 62.6698 23.9C63.2398 23.9 63.7498 24.08 64.1998 24.44C65.3998 25.43 66.5698 26.15 67.7098 26.6C68.8498 27.05 70.1998 27.275 71.7598 27.275C73.4398 27.275 74.8798 26.9 76.0798 26.15C77.3098 25.4 77.9248 24.47 77.9248 23.36C77.9248 22.01 77.3248 20.96 76.1248 20.21C74.9248 19.43 73.0198 18.845 70.4098 18.455C63.8398 17.495 60.5548 14.435 60.5548 9.275C60.5548 7.385 61.0498 5.75 62.0398 4.37C63.0298 2.96 64.3798 1.895 66.0898 1.175C67.7998 0.424998 69.7048 0.0499983 71.8048 0.0499983C73.6948 0.0499983 75.4648 0.334998 77.1148 0.904998C78.7948 1.475 80.1898 2.225 81.2998 3.155C82.1698 3.845 82.6048 4.64 82.6048 5.54C82.6048 6.23 82.3498 6.845 81.8398 7.385C81.3298 7.895 80.7298 8.15 80.0398 8.15C79.5898 8.15 79.1848 8.015 78.8248 7.745C78.0448 7.115 76.9498 6.545 75.5398 6.035C74.1598 5.495 72.9148 5.225 71.8048 5.225C69.9148 5.225 68.4448 5.585 67.3948 6.305C66.3748 6.995 65.8648 7.91 65.8648 9.05C65.8648 10.34 66.3898 11.315 67.4398 11.975C68.5198 12.635 70.1998 13.175 72.4798 13.595C75.0598 14.045 77.1148 14.63 78.6448 15.35C80.2048 16.04 81.3748 17 82.1548 18.23C82.9348 19.43 83.3248 21.035 83.3248 23.045C83.3248 24.935 82.7848 26.6 81.7048 28.04C80.6548 29.45 79.2448 30.545 77.4748 31.325C75.7048 32.075 73.7998 32.45 71.7598 32.45Z" fill="#4A5C2F"/>
</svg>
